<?xml version="1.0" encoding="UTF-8" standalone="no"?>
<svg
   xmlns:dc="http://purl.org/dc/elements/1.1/"
   xmlns:cc="http://creativecommons.org/ns#"
   xmlns:rdf="http://www.w3.org/1999/02/22-rdf-syntax-ns#"
   xmlns:svg="http://www.w3.org/2000/svg"
   xmlns="http://www.w3.org/2000/svg"
   viewBox="0 0 225 106"
   version="1.1"
   id="svg26"
   width="225"
   height="106">
  <metadata
     id="metadata32">
    <rdf:RDF>
      <cc:Work
         rdf:about="">
        <dc:format>image/svg+xml</dc:format>
        <dc:type
           rdf:resource="http://purl.org/dc/dcmitype/StillImage" />
        <dc:title></dc:title>
      </cc:Work>
    </rdf:RDF>
  </metadata>
  <defs>
  <filter id="shadow">
      <feDropShadow dx="3" dy="3" stdDeviation="2" flood-opacity="0.5"/>
    </filter>
   </defs>
  <rect fill="white" stroke="black" stroke-width="0.5" filter="url(#shadow)"
     id="rect23"
     width="216.5"
     height="97.5"
     x="0.25"
     y="0.25" />
  <g
     id="g24">
    <path
       fill="#0066ff"
       d="M 61.1,50.6 H 56.85 L 49.17,25.65 c -0.2,-0.68 -0.42,-1.45 -0.65,-2.33 -0.22,-0.87 -0.45,-1.7 -0.65,-2.52 -0.22,-0.95 -0.47,-1.9 -0.7,-2.88 -0.22,0.98 -0.45,1.93 -0.67,2.88 -0.2,0.82 -0.4,1.67 -0.63,2.55 -0.22,0.87 -0.45,1.65 -0.67,2.3 L 37.6,50.6 H 33.35 L 22.02,14.24 h 3.9 l 7.35,24.11 c 0.35,1.1 0.68,2.17 0.95,3.22 0.27,1.08 0.5,2.03 0.73,2.88 l 0.72,2.82 c 0.28,-1.17 0.55,-2.3 0.82,-3.42 0.23,-0.98 0.5,-1.98 0.81,-3.03 0.27,-1.02 0.55,-1.95 0.77,-2.75 l 7.3,-23.83 h 3.65 l 7.3,23.83 c 0.25,0.78 0.53,1.68 0.8,2.73 0.28,1.05 0.55,2.05 0.8,3.02 0.28,1.13 0.55,2.28 0.85,3.45 0.03,0 0.13,-0.3 0.28,-0.9 0.15,-0.6 0.35,-1.35 0.57,-2.25 0.23,-0.9 0.5,-1.87 0.8,-2.92 0.28,-1.05 0.55,-2 0.83,-2.85 l 7.2,-24.11 h 3.97 z"
       id="path2" />
    <path
       fill="#0066ff"
       d="m 75.37,38.17 c 0,1.45 0.17,2.8 0.55,4.05 0.35,1.28 0.9,2.35 1.65,3.25 0.75,0.93 1.7,1.65 2.85,2.18 1.15,0.52 2.53,0.8 4.13,0.8 2.02,0 3.75,-0.45 5.15,-1.33 1.37,-0.87 2.35,-2.07 2.9,-3.55 l 3.29,0.58 c -0.27,0.72 -0.69,1.5 -1.25,2.32 -0.54,0.83 -1.27,1.58 -2.17,2.25 -0.9,0.68 -2,1.25 -3.3,1.7 -1.32,0.48 -2.9,0.7 -4.75,0.7 -1.92,0 -3.67,-0.3 -5.25,-0.9 -1.58,-0.57 -2.9,-1.47 -3.97,-2.65 -1.11,-1.17 -1.95,-2.6 -2.55,-4.32 -0.61,-1.73 -0.9,-3.7 -0.9,-5.98 0,-2.52 0.37,-4.63 1.09,-6.35 0.73,-1.72 1.68,-3.1 2.86,-4.17 1.17,-1.05 2.52,-1.8 4.05,-2.25 1.5,-0.45 3.02,-0.68 4.57,-0.68 2.07,0 3.88,0.33 5.4,1 1.53,0.68 2.78,1.6 3.75,2.8 0.98,1.23 1.67,2.65 2.15,4.3 0.48,1.65 0.7,3.47 0.7,5.45 v 0.8 z M 84.32,26.5 c -1.12,0 -2.2,0.15 -3.23,0.47 -1.05,0.33 -1.97,0.85 -2.77,1.58 -0.82,0.72 -1.48,1.67 -2,2.82 -0.53,1.15 -0.8,2.55 -0.87,4.2 h 17.37 c -0.1,-1.4 -0.32,-2.65 -0.7,-3.77 -0.37,-1.13 -0.92,-2.08 -1.6,-2.85 -0.7,-0.78 -1.55,-1.4 -2.57,-1.83 C 86.92,26.7 85.72,26.5 84.32,26.5 Z"
       id="path4" />
    <path
       fill="#0066ff"
       d="m 126.42,37.35 c 0,1.95 -0.23,3.77 -0.68,5.45 -0.47,1.7 -1.17,3.15 -2.12,4.37 -0.98,1.23 -2.18,2.2 -3.65,2.9 -1.48,0.7 -3.17,1.05 -5.15,1.05 -2.22,0 -4.18,-0.47 -5.85,-1.42 -1.7,-0.95 -2.98,-2.25 -3.83,-3.93 h -0.07 c 0,0.48 0,0.98 -0.02,1.53 -0.03,0.55 -0.06,1.05 -0.08,1.52 -0.03,0.48 -0.05,0.88 -0.08,1.2 -0.02,0.33 -0.04,0.53 -0.07,0.58 h -3.33 c 0,-0.08 0,-0.3 0.03,-0.65 0,-0.33 0,-0.75 0.03,-1.28 0.02,-0.5 0.02,-1.07 0.05,-1.72 V 45 13.12 h 3.54 V 25 26.52 c 0,0.5 -0.02,0.98 -0.04,1.4 -0.03,0.5 -0.03,0.98 -0.05,1.4 h 0.09 c 0.98,-1.77 2.3,-3.15 3.93,-4.1 1.62,-0.92 3.73,-1.4 6.25,-1.4 1.9,0 3.55,0.35 4.92,1.03 1.38,0.7 2.53,1.65 3.45,2.85 0.93,1.2 1.61,2.62 2.05,4.27 0.45,1.65 0.68,3.45 0.68,5.38 z m -3.65,0 c 0,-1.68 -0.17,-3.18 -0.53,-4.5 -0.35,-1.33 -0.89,-2.45 -1.62,-3.4 -0.73,-0.93 -1.65,-1.65 -2.75,-2.15 -1.13,-0.48 -2.43,-0.73 -3.9,-0.73 -1.17,0 -2.3,0.18 -3.37,0.55 -1.08,0.38 -2.03,1 -2.86,1.85 -0.82,0.88 -1.47,2 -1.94,3.4 -0.5,1.4 -0.75,3.13 -0.75,5.18 0,2 0.25,3.7 0.72,5.07 0.47,1.38 1.12,2.5 1.95,3.35 0.8,0.85 1.75,1.45 2.83,1.83 1.07,0.37 2.19,0.57 3.37,0.57 2.88,0 5.05,-0.95 6.57,-2.85 1.53,-1.9 2.28,-4.62 2.28,-8.17 z"
       id="path6" />
    <path
       fill="#c5000b"
       d="m 156.44,25 c 0,1.47 -0.25,2.9 -0.75,4.22 -0.52,1.35 -1.27,2.53 -2.3,3.53 -1.02,1.02 -2.3,1.82 -3.82,2.42 -1.55,0.63 -3.35,0.93 -5.38,0.93 h -9.52 v 14.5 h -3.7 V 14.24 h 12.9 c 2.07,0 3.9,0.25 5.47,0.78 1.58,0.53 2.88,1.25 3.96,2.18 1.04,0.92 1.84,2.05 2.37,3.37 0.52,1.33 0.77,2.8 0.77,4.43 z m -3.77,0.02 c 0,-2.47 -0.78,-4.37 -2.3,-5.75 -1.55,-1.38 -3.85,-2.05 -6.93,-2.05 h -8.77 v 15.92 h 8.97 c 1.55,0 2.91,-0.19 4.03,-0.62 1.13,-0.4 2.07,-0.97 2.82,-1.7 0.73,-0.72 1.28,-1.6 1.65,-2.57 0.35,-0.98 0.53,-2.05 0.53,-3.23 z"
       id="path8" />
    <path
       fill="#c5000b"
       d="m 183.05,50.6 -15.33,-18.78 -3.9,4 V 50.6 h -3.7 V 14.24 h 3.7 v 17.38 l 17.05,-17.38 h 4.43 l -15.18,15.23 17.4,21.13 z"
       id="path10" />
    <path
       fill="#c5000b"
       d="M 191.5,50.6 V 14.24 h 3.7 V 50.6 Z"
       id="path12" />
    <line
       x1="10"
       y1="64"
       x2="205"
       y2="64"
       stroke-width="1.2"
       stroke="#000000"
       id="line14" />
    <path
       fill="#000000"
       d="m 27,78.91 c 0,0.63 -0.23,1.18 -0.68,1.64 -0.46,0.47 -1.01,0.7 -1.67,0.7 -0.62,0 -1.16,-0.23 -1.6,-0.69 -0.45,-0.46 -0.68,-1.01 -0.68,-1.65 0,-0.64 0.23,-1.18 0.68,-1.62 0.45,-0.44 0.98,-0.66 1.6,-0.66 0.65,0 1.2,0.22 1.66,0.67 0.46,0.45 0.69,0.99 0.69,1.61 z"
       id="path16" />
    <path
       fill="#000000"
       d="m 49.35,77.49 c 0,1.47 -0.28,2.76 -0.84,3.87 -0.57,1.11 -1.38,1.96 -2.43,2.55 -1.05,0.59 -2.3,0.89 -3.73,0.89 -1.45,0 -2.69,-0.29 -3.74,-0.88 -1.05,-0.59 -1.86,-1.44 -2.41,-2.55 -0.55,-1.11 -0.83,-2.4 -0.83,-3.88 0,-2.25 0.62,-4.02 1.85,-5.3 1.23,-1.26 2.95,-1.89 5.15,-1.89 1.43,0 2.68,0.28 3.73,0.85 1.05,0.57 1.86,1.4 2.42,2.48 0.55,1.1 0.83,2.38 0.83,3.86 z m -1.95,0 c 0,-1.75 -0.44,-3.13 -1.31,-4.13 -0.88,-1 -2.12,-1.5 -3.72,-1.5 -1.61,0 -2.86,0.49 -3.74,1.47 -0.88,1 -1.32,2.38 -1.32,4.16 0,1.77 0.45,3.17 1.34,4.2 0.89,1.04 2.12,1.56 3.7,1.56 1.63,0 2.88,-0.5 3.75,-1.51 0.87,-1 1.3,-2.42 1.3,-4.25 z"
       id="path18" />
    <path
       fill="#000000"
       d="m 117.99,84.6 -3.66,-5.85 h -4.39 v 5.85 h -1.91 V 70.51 h 6.63 c 1.59,0 2.81,0.35 3.68,1.06 0.86,0.71 1.29,1.7 1.29,2.97 0,1.04 -0.3,1.93 -0.91,2.64 -0.61,0.71 -1.46,1.15 -2.53,1.35 l 4,6.07 z m -0.28,-10.04 c 0,-0.82 -0.28,-1.45 -0.83,-1.88 -0.56,-0.43 -1.36,-0.64 -2.41,-0.64 h -4.53 v 5.2 h 4.61 c 1.01,0 1.79,-0.24 2.34,-0.71 0.55,-0.47 0.82,-1.12 0.82,-1.97 z"
       id="path20" />
    <path
       fill="#000000"
       d="m 177.56,77.49 c 0,-2.3 0.61,-4.06 1.84,-5.31 1.23,-1.25 2.95,-1.88 5.17,-1.88 1.56,0 2.83,0.26 3.8,0.78 0.97,0.54 1.72,1.38 2.25,2.54 l -1.82,0.54 c -0.4,-0.8 -0.95,-1.38 -1.65,-1.75 -0.71,-0.37 -1.58,-0.55 -2.63,-0.55 -1.63,0 -2.87,0.49 -3.73,1.47 -0.86,0.99 -1.29,2.36 -1.29,4.16 0,1.78 0.46,3.18 1.37,4.21 0.91,1.03 2.18,1.55 3.79,1.55 0.92,0 1.78,-0.14 2.58,-0.42 0.79,-0.28 1.44,-0.66 1.93,-1.14 v -2.54 h -4.21 v -1.6 h 5.97 v 4.86 c -0.75,0.76 -1.66,1.35 -2.74,1.76 -1.09,0.42 -2.26,0.63 -3.53,0.63 -1.47,0 -2.74,-0.29 -3.81,-0.88 -1.07,-0.59 -1.88,-1.43 -2.44,-2.54 -0.57,-1.1 -0.85,-2.4 -0.85,-3.89 z"
       id="path22" />
  </g>
</svg>
